<svg t="1699279478285" class="icon" viewBox="0 0 1024 1024" version="1.1" xmlns="http://www.w3.org/2000/svg" p-id="14807" width="48" height="48"><path d="M951.168 526.154a30 30 0 0 1-42.427 0c-0.044-0.045-0.081-0.1-0.125-0.14l-0.007 0.007-382.545-382.54a20 20 0 0 0-28.284 0l-382.545 382.54a30 30 0 1 1-42.426-42.426L476.567 79.837a50 50 0 0 1 70.71 0l403.758 403.758-0.006 0.006c0.045 0.045 0.094 0.081 0.139 0.126a30 30 0 0 1 0 42.427z m-72.246-221.373a30 30 0 0 1-30-30v-100h-100a30 30 0 0 1 0-60h130a30 30 0 0 1 30 30v130a30 30 0 0 1-30 30z m-698 237.25a30 30 0 0 1 29.994 29.75h0.006v307a20 20 0 0 0 20 20h137v-235a50 50 0 0 1 50-50h188a50 50 0 0 1 50 50v235h137a20 20 0 0 0 20-20v-302.7a30 30 0 1 1 59.656-4.554c0 0.084 0 0.166-0.006 0.25h0.35v337.004a50 50 0 0 1-50 50h-227V693.365a20 20 0 0 0-20-20h-128a20 20 0 0 0-20 20v265.416h-227a50 50 0 0 1-50-50v-337h0.006a30 30 0 0 1 29.994-29.75z" fill="#303030" p-id="14808"></path></svg>