<svg t="1700634981315" class="icon" viewBox="0 0 1024 1024" version="1.1" xmlns="http://www.w3.org/2000/svg" p-id="4316" width="48" height="48"><path d="M429.8 880.6H184c-22.6 0-41-18.4-41-41V184.3c0-22.6 18.4-41 41-41h245.8c22.6 0 41-18.3 41-41s-18.3-41-41-41H184c-67.8 0-122.9 55.1-122.9 122.9v655.4c0 67.8 55.1 122.9 122.9 122.9h245.8c22.6 0 41-18.3 41-41s-18.4-40.9-41-40.9z" p-id="4317" fill="#303030"></path><path d="M962.8 513.4c0-2.7-0.3-5.5-0.8-8.1-0.1-0.2-0.2-0.5-0.2-0.7-1.6-7.4-5.2-14.4-10.9-20.1-0.2-0.2-0.4-0.3-0.5-0.4L748.2 281.8c-15.9-15.9-42-15.9-57.9 0-15.9 15.9-15.9 42 0 57.9L823 472.5H307.5c-22.5 0-41 18.4-41 41 0 22.5 18.4 41 41 41H823L690.2 687.2c-15.9 15.9-15.9 42 0 57.9s42 15.9 57.9 0l202.2-202.2c0.2-0.2 0.4-0.3 0.5-0.4 5.7-5.7 9.3-12.7 10.9-20.1 0.1-0.2 0.2-0.5 0.2-0.7 0.7-2.8 1-5.5 0.9-8.3 0 0.1 0.1 0.1 0 0 0.1 0.1 0 0 0 0z" p-id="4318" fill="#303030"></path></svg>